<svg width="23" height="23" viewBox="0 0 23 23" fill="none" xmlns="http://www.w3.org/2000/svg">
<path d="M10.7185 11.4997C10.7185 11.8087 10.6269 12.1108 10.4552 12.3678C10.2835 12.6247 10.0394 12.825 9.75394 12.9432C9.46843 13.0615 9.15426 13.0924 8.85117 13.0322C8.54807 12.9719 8.26966 12.8231 8.05114 12.6045C7.83262 12.386 7.68381 12.1076 7.62352 11.8045C7.56323 11.5014 7.59417 11.1872 7.71243 10.9017C7.8307 10.6162 8.03097 10.3722 8.28792 10.2005C8.54487 10.0288 8.84696 9.93718 9.156 9.93718C9.5704 9.93718 9.96782 10.1018 10.2609 10.3948C10.5539 10.6879 10.7185 11.0853 10.7185 11.4997ZM13.8435 9.93718C13.5345 9.93718 13.2324 10.0288 12.9754 10.2005C12.7185 10.3722 12.5182 10.6162 12.3999 10.9017C12.2817 11.1872 12.2507 11.5014 12.311 11.8045C12.3713 12.1076 12.5201 12.386 12.7386 12.6045C12.9572 12.8231 13.2356 12.9719 13.5387 13.0322C13.8418 13.0924 14.1559 13.0615 14.4414 12.9432C14.7269 12.825 14.971 12.6247 15.1427 12.3678C15.3144 12.1108 15.406 11.8087 15.406 11.4997C15.406 11.0853 15.2414 10.6879 14.9483 10.3948C14.6553 10.1018 14.2579 9.93718 13.8435 9.93718ZM22.0466 11.4997C22.047 13.3063 21.5833 15.0827 20.7 16.6586C19.8167 18.2346 18.5434 19.5572 17.0021 20.4997C15.4609 21.4422 13.7033 21.9731 11.898 22.0413C10.0927 22.1095 8.30012 21.7128 6.69213 20.8893L3.52514 21.9489C3.18037 22.0651 2.81001 22.0827 2.45578 21.9997C2.10156 21.9167 1.77756 21.7364 1.5203 21.4791C1.26304 21.2219 1.08275 20.8979 0.99975 20.5436C0.916748 20.1894 0.934335 19.8191 1.05053 19.4743L2.10619 16.3073C1.38128 14.8873 0.987714 13.3215 0.955087 11.7276C0.922459 10.1336 1.25162 8.55299 1.91782 7.10456C2.58401 5.65613 3.56991 4.37758 4.80139 3.36503C6.03286 2.35249 7.47786 1.63231 9.02774 1.25863C10.5776 0.884959 12.1921 0.867516 13.7497 1.20762C15.3072 1.54772 16.7675 2.23651 18.0205 3.22221C19.2736 4.20791 20.2869 5.46486 20.9842 6.89856C21.6816 8.33225 22.0448 9.90539 22.0466 11.4997ZM19.7029 11.4997C19.7024 10.2414 19.4125 9.00014 18.8555 7.87185C18.2986 6.74357 17.4895 5.75852 16.491 4.99293C15.4925 4.22733 14.3312 3.7017 13.097 3.4567C11.8628 3.21169 10.5888 3.25389 9.37359 3.58002C8.15833 3.90614 7.03438 4.50746 6.08869 5.33745C5.143 6.16744 4.40091 7.20385 3.91984 8.36652C3.43878 9.52918 3.23162 10.7869 3.31439 12.0425C3.39717 13.298 3.76766 14.5177 4.39721 15.6071C4.48041 15.7508 4.53215 15.9105 4.54898 16.0756C4.56582 16.2408 4.54737 16.4076 4.49486 16.5651L3.52514 19.4743L6.43432 18.5046C6.55399 18.4647 6.67927 18.4443 6.80541 18.444C7.01123 18.4444 7.21332 18.4989 7.39135 18.6022C8.63844 19.3238 10.0536 19.7042 11.4944 19.7052C12.9352 19.7061 14.3509 19.3275 15.5989 18.6076C16.8469 17.8876 17.8833 16.8516 18.6038 15.6038C19.3242 14.356 19.7033 12.9405 19.7029 11.4997Z" fill="#186BAD"/>
</svg>
