<svg width="18" height="19" viewBox="0 0 18 19" fill="none" xmlns="http://www.w3.org/2000/svg">
<path fill-rule="evenodd" clip-rule="evenodd" d="M17.64 10.1796C17.64 9.54138 17.5827 8.92774 17.4764 8.33865H9V11.82H13.8436C13.635 12.945 13.0009 13.8982 12.0477 14.5364V16.7946H14.9564C16.6582 15.2277 17.64 12.9205 17.64 10.1796Z" fill="#4285F4"/>
<path fill-rule="evenodd" clip-rule="evenodd" d="M8.99994 18.9749C11.4299 18.9749 13.4672 18.169 14.9563 16.7944L12.0477 14.5362C11.2418 15.0762 10.2109 15.3953 8.99994 15.3953C6.65585 15.3953 4.67176 13.8121 3.96403 11.6849H0.957214V14.0167C2.43812 16.9581 5.48176 18.9749 8.99994 18.9749Z" fill="#34A853"/>
<path fill-rule="evenodd" clip-rule="evenodd" d="M3.96409 11.685C3.78409 11.145 3.68182 10.5682 3.68182 9.97505C3.68182 9.38186 3.78409 8.80505 3.96409 8.26505V5.93323H0.957273C0.347727 7.14823 0 8.52277 0 9.97505C0 11.4273 0.347727 12.8019 0.957273 14.0169L3.96409 11.685Z" fill="#FBBC05"/>
<path fill-rule="evenodd" clip-rule="evenodd" d="M8.99994 4.55455C10.3213 4.55455 11.5077 5.00864 12.4404 5.90046L15.0218 3.3191C13.4631 1.86682 11.4259 0.975006 8.99994 0.975006C5.48176 0.975006 2.43812 2.99182 0.957214 5.93319L3.96403 8.26501C4.67176 6.13773 6.65585 4.55455 8.99994 4.55455Z" fill="#EA4335"/>
</svg>
