<svg width="17" height="16" viewBox="0 0 17 16" fill="none" xmlns="http://www.w3.org/2000/svg">
<path fill-rule="evenodd" clip-rule="evenodd" d="M9 1C9 0.867392 9.05268 0.740215 9.14645 0.646447C9.24021 0.552679 9.36739 0.5 9.5 0.5C10.9834 0.5 12.4334 0.939867 13.6668 1.76398C14.9001 2.58809 15.8614 3.75943 16.4291 5.12987C16.9968 6.50032 17.1453 8.00832 16.8559 9.46318C16.5665 10.918 15.8522 12.2544 14.8033 13.3033C13.7544 14.3522 12.418 15.0665 10.9632 15.3559C9.50832 15.6453 8.00032 15.4968 6.62987 14.9291C5.25943 14.3614 4.08809 13.4001 3.26398 12.1668C2.43987 10.9334 2 9.48336 2 8C2 7.86739 2.05268 7.74021 2.14645 7.64645C2.24021 7.55268 2.36739 7.5 2.5 7.5C2.63261 7.5 2.75979 7.55268 2.85355 7.64645C2.94732 7.74021 3 7.86739 3 8C3 9.28558 3.38122 10.5423 4.09545 11.6112C4.80968 12.6801 5.82484 13.5132 7.01256 14.0052C8.20028 14.4972 9.50721 14.6259 10.7681 14.3751C12.029 14.1243 13.1872 13.5052 14.0962 12.5962C15.0052 11.6872 15.6243 10.529 15.8751 9.26809C16.1259 8.00721 15.9972 6.70028 15.5052 5.51256C15.0132 4.32484 14.1801 3.30968 13.1112 2.59545C12.0423 1.88122 10.7856 1.5 9.5 1.5C9.36739 1.5 9.24021 1.44732 9.14645 1.35355C9.05268 1.25979 9 1.13261 9 1Z" fill="black"/>
<path d="M7 1.25C7 1.44891 6.92098 1.63968 6.78033 1.78033C6.63968 1.92098 6.44891 2 6.25 2C6.05109 2 5.86032 1.92098 5.71967 1.78033C5.57902 1.63968 5.5 1.44891 5.5 1.25C5.5 1.05109 5.57902 0.860322 5.71967 0.71967C5.86032 0.579018 6.05109 0.5 6.25 0.5C6.44891 0.5 6.63968 0.579018 6.78033 0.71967C6.92098 0.860322 7 1.05109 7 1.25ZM4.5 2.75C4.5 2.94891 4.42098 3.13968 4.28033 3.28033C4.13968 3.42098 3.94891 3.5 3.75 3.5C3.55109 3.5 3.36032 3.42098 3.21967 3.28033C3.07902 3.13968 3 2.94891 3 2.75C3 2.55109 3.07902 2.36032 3.21967 2.21967C3.36032 2.07902 3.55109 2 3.75 2C3.94891 2 4.13968 2.07902 4.28033 2.21967C4.42098 2.36032 4.5 2.55109 4.5 2.75ZM3 5.25C3 5.44891 2.92098 5.63968 2.78033 5.78033C2.63968 5.92098 2.44891 6 2.25 6C2.05109 6 1.86032 5.92098 1.71967 5.78033C1.57902 5.63968 1.5 5.44891 1.5 5.25C1.5 5.05109 1.57902 4.86032 1.71967 4.71967C1.86032 4.57902 2.05109 4.5 2.25 4.5C2.44891 4.5 2.63968 4.57902 2.78033 4.71967C2.92098 4.86032 3 5.05109 3 5.25Z" fill="black"/>
<path fill-rule="evenodd" clip-rule="evenodd" d="M4.947 9.22422C5.00641 9.10567 5.01628 8.96837 4.97446 8.84254C4.93264 8.7167 4.84255 8.61263 4.724 8.55322L2.724 7.55322C2.60559 7.49502 2.46898 7.48599 2.34394 7.52808C2.2189 7.57018 2.11556 7.65999 2.05645 7.77795C1.99734 7.8959 1.98725 8.03244 2.02837 8.1578C2.0695 8.28317 2.15851 8.3872 2.276 8.44722L4.276 9.44722C4.39455 9.50662 4.53185 9.5165 4.65768 9.47468C4.78352 9.43286 4.88759 9.34277 4.947 9.22422Z" fill="black"/>
<path fill-rule="evenodd" clip-rule="evenodd" d="M2.854 7.646C2.90057 7.69245 2.93751 7.74762 2.96272 7.80837C2.98792 7.86911 3.0009 7.93423 3.0009 8C3.0009 8.06577 2.98792 8.13089 2.96272 8.19163C2.93751 8.25238 2.90057 8.30755 2.854 8.354L1.354 9.854C1.26025 9.94789 1.13304 10.0007 1.00036 10.0008C0.867675 10.0009 0.74039 9.94825 0.646503 9.8545C0.552617 9.76075 0.499819 9.63354 0.499725 9.50085C0.499632 9.36817 0.552249 9.24089 0.646003 9.147L2.146 7.647C2.19245 7.60044 2.24762 7.56349 2.30837 7.53829C2.36911 7.51308 2.43424 7.50011 2.5 7.50011C2.56577 7.50011 2.63089 7.51308 2.69164 7.53829C2.75238 7.56349 2.80756 7.60044 2.854 7.647M9.5 4.5C9.63261 4.5 9.75979 4.55268 9.85356 4.64645C9.94733 4.74021 10 4.86739 10 5V8C10 8.13261 9.94733 8.25979 9.85356 8.35355C9.75979 8.44732 9.63261 8.5 9.5 8.5C9.3674 8.5 9.24022 8.44732 9.14645 8.35355C9.05268 8.25979 9 8.13261 9 8V5C9 4.86739 9.05268 4.74021 9.14645 4.64645C9.24022 4.55268 9.3674 4.5 9.5 4.5Z" fill="black"/>
<path fill-rule="evenodd" clip-rule="evenodd" d="M13 8C13 8.13261 12.9473 8.25979 12.8536 8.35355C12.7598 8.44732 12.6326 8.5 12.5 8.5H9.5C9.36739 8.5 9.24021 8.44732 9.14645 8.35355C9.05268 8.25979 9 8.13261 9 8C9 7.86739 9.05268 7.74021 9.14645 7.64645C9.24021 7.55268 9.36739 7.5 9.5 7.5H12.5C12.6326 7.5 12.7598 7.55268 12.8536 7.64645C12.9473 7.74021 13 7.86739 13 8Z" fill="black"/>
</svg>
