<svg width="18" height="19" viewBox="0 0 18 19" fill="none" xmlns="http://www.w3.org/2000/svg">
<path d="M16 0.975006C16.5304 0.975006 17.0391 1.18572 17.4142 1.56079C17.7893 1.93587 18 2.44457 18 2.97501V16.975C18 17.5054 17.7893 18.0141 17.4142 18.3892C17.0391 18.7643 16.5304 18.975 16 18.975H2C1.46957 18.975 0.960859 18.7643 0.585786 18.3892C0.210714 18.0141 0 17.5054 0 16.975V2.97501C0 2.44457 0.210714 1.93587 0.585786 1.56079C0.960859 1.18572 1.46957 0.975006 2 0.975006H16ZM15.5 16.475V11.175C15.5 10.3104 15.1565 9.48121 14.5452 8.86984C13.9338 8.25847 13.1046 7.91501 12.24 7.91501C11.39 7.91501 10.4 8.43501 9.92 9.21501V8.10501H7.13V16.475H9.92V11.545C9.92 10.775 10.54 10.145 11.31 10.145C11.6813 10.145 12.0374 10.2925 12.2999 10.5551C12.5625 10.8176 12.71 11.1737 12.71 11.545V16.475H15.5ZM3.88 6.53501C4.32556 6.53501 4.75288 6.35801 5.06794 6.04295C5.383 5.72788 5.56 5.30057 5.56 4.85501C5.56 3.92501 4.81 3.16501 3.88 3.16501C3.43178 3.16501 3.00193 3.34306 2.68499 3.66C2.36805 3.97693 2.19 4.40679 2.19 4.85501C2.19 5.78501 2.95 6.53501 3.88 6.53501ZM5.27 16.475V8.10501H2.5V16.475H5.27Z" fill="#0085FF"/>
</svg>
